<svg width="24" height="24" viewBox="0 0 24 24" fill="none" xmlns="http://www.w3.org/2000/svg">
<path d="M19.3249 9.46777C19.3249 9.46777 18.7819 16.2028 18.4669 19.0398C18.3169 20.3948 17.4799 21.1888 16.1089 21.2138C13.4999 21.2608 10.8879 21.2638 8.27991 21.2088C6.96091 21.1818 6.13791 20.3778 5.99091 19.0468C5.67391 16.1848 5.13391 9.46777 5.13391 9.46777" stroke="#FF0000" stroke-width="1.5" stroke-linecap="round" stroke-linejoin="round"/>
<path d="M20.7082 6.23926H3.75024" stroke="#FF0000" stroke-width="1.5" stroke-linecap="round" stroke-linejoin="round"/>
<path d="M17.4407 6.23949C16.6557 6.23949 15.9797 5.68449 15.8257 4.91549L15.5827 3.69949C15.4327 3.13849 14.9247 2.75049 14.3457 2.75049H10.1127C9.5337 2.75049 9.0257 3.13849 8.8757 3.69949L8.6327 4.91549C8.4787 5.68449 7.8027 6.23949 7.0177 6.23949" stroke="#FF0000" stroke-width="1.5" stroke-linecap="round" stroke-linejoin="round"/>
</svg>
