<svg width="136" height="48" viewBox="0 0 136 48" fill="none" xmlns="http://www.w3.org/2000/svg">
<rect x="1.75" y="1.5" width="45" height="45" rx="22.5" stroke="#3C4BDC" stroke-width="3"/>
<path d="M68.566 30.216C67.714 30.216 66.928 30.06 66.208 29.748C65.5 29.424 64.918 28.968 64.462 28.38L66.082 26.436C66.43 26.892 66.796 27.24 67.18 27.48C67.564 27.708 67.978 27.822 68.422 27.822C69.61 27.822 70.204 27.126 70.204 25.734V19.74H65.776V17.4H73.102V25.572C73.102 27.132 72.718 28.296 71.95 29.064C71.182 29.832 70.054 30.216 68.566 30.216ZM80.3923 30.144C79.3603 30.144 78.4423 29.928 77.6383 29.496C76.8463 29.064 76.2163 28.476 75.7483 27.732C75.2923 26.976 75.0643 26.118 75.0643 25.158C75.0643 24.186 75.2923 23.328 75.7483 22.584C76.2163 21.828 76.8463 21.24 77.6383 20.82C78.4423 20.388 79.3603 20.172 80.3923 20.172C81.4123 20.172 82.3243 20.388 83.1283 20.82C83.9323 21.24 84.5623 21.822 85.0183 22.566C85.4743 23.31 85.7023 24.174 85.7023 25.158C85.7023 26.118 85.4743 26.976 85.0183 27.732C84.5623 28.476 83.9323 29.064 83.1283 29.496C82.3243 29.928 81.4123 30.144 80.3923 30.144ZM80.3923 27.84C80.8603 27.84 81.2803 27.732 81.6523 27.516C82.0243 27.3 82.3183 26.994 82.5343 26.598C82.7503 26.19 82.8583 25.71 82.8583 25.158C82.8583 24.594 82.7503 24.114 82.5343 23.718C82.3183 23.322 82.0243 23.016 81.6523 22.8C81.2803 22.584 80.8603 22.476 80.3923 22.476C79.9243 22.476 79.5043 22.584 79.1323 22.8C78.7603 23.016 78.4603 23.322 78.2323 23.718C78.0163 24.114 77.9083 24.594 77.9083 25.158C77.9083 25.71 78.0163 26.19 78.2323 26.598C78.4603 26.994 78.7603 27.3 79.1323 27.516C79.5043 27.732 79.9243 27.84 80.3923 27.84ZM91.6652 30.144C90.8612 30.144 90.1412 29.988 89.5052 29.676C88.8812 29.364 88.3952 28.89 88.0472 28.254C87.6992 27.606 87.5252 26.784 87.5252 25.788V20.316H90.3332V25.374C90.3332 26.178 90.5012 26.772 90.8372 27.156C91.1852 27.528 91.6712 27.714 92.2952 27.714C92.7272 27.714 93.1112 27.624 93.4472 27.444C93.7832 27.252 94.0472 26.964 94.2392 26.58C94.4312 26.184 94.5272 25.692 94.5272 25.104V20.316H97.3352V30H94.6712V27.336L95.1572 28.11C94.8332 28.782 94.3532 29.292 93.7172 29.64C93.0932 29.976 92.4092 30.144 91.6652 30.144ZM99.9366 30V20.316H102.619V23.052L102.241 22.26C102.529 21.576 102.991 21.06 103.627 20.712C104.263 20.352 105.037 20.172 105.949 20.172V22.764C105.829 22.752 105.721 22.746 105.625 22.746C105.529 22.734 105.427 22.728 105.319 22.728C104.551 22.728 103.927 22.95 103.447 23.394C102.979 23.826 102.745 24.504 102.745 25.428V30H99.9366ZM113.522 20.172C114.29 20.172 114.974 20.328 115.574 20.64C116.186 20.94 116.666 21.408 117.014 22.044C117.362 22.668 117.536 23.472 117.536 24.456V30H114.728V24.888C114.728 24.108 114.554 23.532 114.206 23.16C113.87 22.788 113.39 22.602 112.766 22.602C112.322 22.602 111.92 22.698 111.56 22.89C111.212 23.07 110.936 23.352 110.732 23.736C110.54 24.12 110.444 24.612 110.444 25.212V30H107.636V20.316H110.318V22.998L109.814 22.188C110.162 21.54 110.66 21.042 111.308 20.694C111.956 20.346 112.694 20.172 113.522 20.172ZM126.021 30V28.11L125.841 27.696V24.312C125.841 23.712 125.655 23.244 125.283 22.908C124.923 22.572 124.365 22.404 123.609 22.404C123.093 22.404 122.583 22.488 122.079 22.656C121.587 22.812 121.167 23.028 120.819 23.304L119.811 21.342C120.339 20.97 120.975 20.682 121.719 20.478C122.463 20.274 123.219 20.172 123.987 20.172C125.463 20.172 126.609 20.52 127.425 21.216C128.241 21.912 128.649 22.998 128.649 24.474V30H126.021ZM123.069 30.144C122.313 30.144 121.665 30.018 121.125 29.766C120.585 29.502 120.171 29.148 119.883 28.704C119.595 28.26 119.451 27.762 119.451 27.21C119.451 26.634 119.589 26.13 119.865 25.698C120.153 25.266 120.603 24.93 121.215 24.69C121.827 24.438 122.625 24.312 123.609 24.312H126.183V25.95H123.915C123.255 25.95 122.799 26.058 122.547 26.274C122.307 26.49 122.187 26.76 122.187 27.084C122.187 27.444 122.325 27.732 122.601 27.948C122.889 28.152 123.279 28.254 123.771 28.254C124.239 28.254 124.659 28.146 125.031 27.93C125.403 27.702 125.673 27.372 125.841 26.94L126.273 28.236C126.069 28.86 125.697 29.334 125.157 29.658C124.617 29.982 123.921 30.144 123.069 30.144ZM131.191 30V16.644H133.999V30H131.191Z" fill="#353437"/>
</svg>
