<svg width="40" height="35" viewBox="0 0 40 35" fill="none" xmlns="http://www.w3.org/2000/svg">
<path fill-rule="evenodd" clip-rule="evenodd" d="M31.2756 7.55852V7.55852C30.5296 7.55852 29.8536 7.13426 29.5356 6.47123C28.9616 5.27146 28.2316 3.7382 27.7996 2.90349C27.1616 1.66229 26.1276 0.940057 24.6956 0.930191C24.6716 0.928218 15.3276 0.928218 15.3036 0.930191C13.8716 0.940057 12.8396 1.66229 12.1996 2.90349C11.7696 3.7382 11.0396 5.27146 10.4656 6.47123C10.1476 7.13426 9.46963 7.55852 8.72563 7.55852V7.55852C4.73363 7.55852 1.49963 10.7494 1.49963 14.6861V26.3996C1.49963 30.3344 4.73363 33.5272 8.72563 33.5272H31.2756C35.2656 33.5272 38.4996 30.3344 38.4996 26.3996V14.6861C38.4996 10.7494 35.2656 7.55852 31.2756 7.55852Z" stroke="#020105" stroke-width="1.5" stroke-linecap="round" stroke-linejoin="round"/>
<path fill-rule="evenodd" clip-rule="evenodd" d="M13.6428 19.8416C13.6408 23.3008 16.5028 26.1305 20.0028 26.1285C23.4968 26.1246 26.3508 23.3067 26.3568 19.8554C26.3628 16.3902 23.5108 13.5665 20.0068 13.5625C16.4828 13.5586 13.6148 16.4297 13.6428 19.8416Z" stroke="#020105" stroke-width="1.5" stroke-linecap="round" stroke-linejoin="round"/>
<path d="M29.805 15.225C29.6118 15.2054 29.4209 15.1557 29.2072 15.0708C28.9694 14.9666 28.7636 14.834 28.5646 14.6345C28.207 14.2593 28 13.7686 28 13.2623C28 12.9934 28.0557 12.7269 28.1645 12.4855C28.2736 12.2409 28.4028 12.0346 28.6364 11.8101C28.814 11.6575 28.996 11.5346 29.2448 11.4265C29.9826 11.138 30.8602 11.3104 31.4087 11.8513C31.573 12.0111 31.7115 12.2039 31.7883 12.3665L31.8338 12.4818C31.9443 12.7269 32 12.9934 32 13.2623C32 13.7788 31.7956 14.2565 31.4163 14.6541C31.0884 14.9798 30.6578 15.18 30.1984 15.225L30 15.2347L29.805 15.225Z" fill="#020105"/>
</svg>
